<svg xmlns="http://www.w3.org/2000/svg" width="24.06" height="31.057" viewBox="0 0 24.06 31.057">
  <g>
    <path d="M22.012,11.687a4.486,4.486,0,0,1,2.02,4.15,4.578,4.578,0,0,1-2.75,3.49,7.234,7.234,0,0,1-3.79.48c.04,1.98.08,3.95.12,5.93.03,1.56.01,3.42-1.23,4.57a3.129,3.129,0,0,1-4.3-.25A44.511,44.511,0,0,1,8.1,25.5l-4.28-4.99c-1.16-1.35-2.79-2.75-3.53-4.38-.83-1.83.25-3.45,1.5-4.74,1.35-1.4,2.76-2.73,4.22-4.01a80.165,80.165,0,0,1,9.38-7.13,1.316,1.316,0,0,1,1.88.37,1.388,1.388,0,0,1,1.16,1.41v8.69A6.021,6.021,0,0,1,22.012,11.687Zm-1,3.99c.6-1.94-2.59-2.08-3.68-1.91a1.53,1.53,0,0,1-1.9-1.45V3.837a75.362,75.362,0,0,0-7.8,6.1,38.547,38.547,0,0,0-4.15,4.03c-.82.99-.17,1.36.55,2.2.64.74,1.27,1.48,1.91,2.22l4.12,4.81c.69.8,1.37,1.6,2.06,2.4a11.455,11.455,0,0,0,1.94,2.22,1.961,1.961,0,0,1,.3.26c.16-.08.21-.59.23-.77a16.363,16.363,0,0,0,0-2.8l-.13-6.43a1.526,1.526,0,0,1,1.9-1.45C17.6,16.847,20.462,17.407,21.012,15.677Z"/>
    <path d="M17.332,13.767c1.09-.17,4.28-.03,3.68,1.91-.55,1.73-3.41,1.17-4.65.95a1.526,1.526,0,0,0-1.9,1.45l.13,6.43a16.363,16.363,0,0,1,0,2.8c-.02.18-.07.69-.23.77a1.961,1.961,0,0,0-.3-.26,11.455,11.455,0,0,1-1.94-2.22c-.69-.8-1.37-1.6-2.06-2.4l-4.12-4.81c-.64-.74-1.27-1.48-1.91-2.22-.72-.84-1.37-1.21-.55-2.2a38.547,38.547,0,0,1,4.15-4.03,75.362,75.362,0,0,1,7.8-6.1v8.48A1.53,1.53,0,0,0,17.332,13.767Z" fill="#bca199"/>
  </g>
</svg>
