<svg xmlns="http://www.w3.org/2000/svg" width="26.838" height="35.34" viewBox="0 0 26.838 35.34">
  <g>
    <path d="M26.837,18.782c.06,2.75-2.67,5.12-4.43,6.95a54.457,54.457,0,0,1-6.32,5.62q-1.86,1.425-3.84,2.68c-1.09.69-2.29,1.56-3.66,1.24-2.52-.59-2.67-3.69-2.87-5.75-.27-2.83-.53-5.66-.8-8.48-2.3.14-4.77-.59-4.91-3.32-.16-3.12,2.56-4.38,5.16-4.84-.07-1.63-.14-3.27-.21-4.9a22.213,22.213,0,0,1-.03-4.89c.62-3.21,3.83-3.67,6.43-2.52A26.107,26.107,0,0,1,18,5.372a38.415,38.415,0,0,1,5.3,6.02C24.787,13.472,26.767,16.122,26.837,18.782Zm-3.36,1.13c.62-.98.27-1.93-.22-2.9a31.622,31.622,0,0,0-3.53-5.41c-2.51-3.13-5.76-6.43-9.4-8.21-.56-.28-1.69-.8-2.23-.26-.57.55-.25,2.18-.22,2.87l.34,7.93a1.3,1.3,0,0,1-.53,1.16,1.5,1.5,0,0,1-1.11.6c-.93.08-3.69.24-3.58,1.76.09,1.14,2.18.6,2.86.42a1.528,1.528,0,0,1,1.9,1.45c.27,2.91.55,5.83.82,8.74a16.647,16.647,0,0,0,.46,3.74c.06.16.1.43.25.53,0-.04.03-.08.18-.12a7.846,7.846,0,0,0,1.63-1,51.138,51.138,0,0,0,10.21-8.7A19.942,19.942,0,0,0,23.477,19.912Z"/>
    <path d="M23.257,17.012c.49.97.84,1.92.22,2.9a19.942,19.942,0,0,1-2.17,2.6,51.138,51.138,0,0,1-10.21,8.7,7.846,7.846,0,0,1-1.63,1c-.15.04-.18.08-.18.12-.15-.1-.19-.37-.25-.53a16.647,16.647,0,0,1-.46-3.74c-.27-2.91-.55-5.83-.82-8.74a1.528,1.528,0,0,0-1.9-1.45c-.68.18-2.77.72-2.86-.42-.11-1.52,2.65-1.68,3.58-1.76a1.5,1.5,0,0,0,1.11-.6,1.3,1.3,0,0,0,.53-1.16L7.877,6c-.03-.69-.35-2.32.22-2.87.54-.54,1.67-.02,2.23.26,3.64,1.78,6.89,5.08,9.4,8.21A31.622,31.622,0,0,1,23.257,17.012Z" fill="#bca199"/>
  </g>
</svg>
